{
  "title": "Gemma.Bovery.2014.BRRip.XviD.AC3-EVO",
  "uid": 11728164,
  "size": 1544291104,
  "categoryP": "video",
  "categoryS": "movies",
  "magnet": "?xt=urn:btih:55c31d54bd86e96d58549d4562b0613432d95833&amp;dn=Gemma.Bovery.2014.BRRip.XviD.AC3-EVO&amp;tr=udp%3A%2F%2Ftracker.openbittorrent.com%3A80&amp;tr=udp%3A%2F%2Fopen.demonii.com%3A1337&amp;tr=udp%3A%2F%2Ftracker.coppersurfer.tk%3A6969&amp;tr=udp%3A%2F%2Fexodus.desync.com%3A6969",
  "seeders": 46,
  "leechers": 9,
  "uploader": "noriegaRJ",
  "files": 5,
  "time": 1425166527,
  "description": "Title: Gemma Bovery\n\n\nIMDB Link:                                        &lt;a href=&quot;\nhttp://www.imdb.com/title/tt2788556/&quot; rel=&quot;nofollow&quot; target=&quot;_NEW&quot;&gt;\nhttp://www.imdb.com/title/tt2788556/&lt;/a&gt;\n\n\nPlot: Martin, an ex-Parisian well-heeled hipster passionate about Gustave Flaubert who settled into a Norman village as a baker, sees an English couple moving into a small farm nearby. Not only are the names of the new arrivals Gemma and Charles Bovery, but their behavior also seems to be inspired by Flaubert's heroes.\n\n\n\nGeneral\nComplete name                            : Gemma.Bovery.2014.BRRip.XviD.AC3-EVO\nFormat                                   : AVI\nFormat/Info                              : Audio Video Interleave\nFile size                                : 1.42 GiB\nDuration                                 : 1h 39mn\nOverall bit rate                         : 2 055 Kbps\nWriting library                          : VirtualDub build 32593/release\n\nVideo\nID                                       : 0\nFormat                                   : MPEG-4 Visual\nFormat profile                           : Advanced Simple@L5\nFormat settings, BVOP                    : 2\nFormat settings, QPel                    : No\nFormat settings, GMC                     : No warppoints\nFormat settings, Matrix                  : Default (H.263)\nMuxing mode                              : Packed bitstream\nCodec ID                                 : XVID\nCodec ID/Hint                            : XviD\nDuration                                 : 1h 39mn\nBit rate                                 : 1 517 Kbps\nWidth                                    : 720 pixels\nHeight                                   : 304 pixels\nDisplay aspect ratio                     : 2.35:1\nFrame rate                               : 24.000 fps\nColor space                              : YUV\nChroma subsampling                       : 4:2:0\nBit depth                                : 8 bits\nScan type                                : Progressive\nCompression mode                         : Lossy\nBits/(Pixel*Frame)                       : 0.289\nStream size                              : 1.05 GiB (74%)\nWriting library                          : XviD 64\n\nAudio\nID                                       : 1\nFormat                                   : AC-3\nFormat/Info                              : Audio Coding 3\nMode extension                           : CM (complete main)\nFormat settings, Endianness              : Big\nCodec ID                                 : 2000\nDuration                                 : 1h 39mn\nBit rate mode                            : Constant\nBit rate                                 : 448 Kbps\nChannel count                            : 2 channels\nChannel positions                        : Front: L R\nSampling rate                            : 48.0 KHz\nBit depth                                : 16 bits\nCompression mode                         : Lossy\nStream size                              : 317 MiB (22%)\nAlignment                                : Aligned on interleaves\n\n\n\n\nThanks to those helping me seed. Leechers remember, the community depends on you. If nobody shares, the freebies go away. Remember, the only reason you can download this free movie is because others are generous enough to keep sharing it with you. If nobody shares, everybody loses, so even if its for an extra hour or two after you get it, remember, others want to see it too, and they can't without you.\n\n\nSEE MY OTHERS UPLOADS:                                                                &lt;a href=&quot;\nhttp://thepiratebay.se/user/noriegaRJ&quot; rel=&quot;nofollow&quot; target=&quot;_NEW&quot;&gt;\nhttp://thepiratebay.se/user/noriegaRJ&lt;/a&gt;\n\nAND SEE THIS ANOTHERS UPLOADS FROM &quot;HORiZON-ArtSubs&quot;:                &lt;a href=&quot;\nhttp://thepiratebay.se/user/artsubs&quot; rel=&quot;nofollow&quot; target=&quot;_NEW&quot;&gt;\nhttp://thepiratebay.se/user/artsubs&lt;/a&gt;                &lt;a href=&quot;\nhttp://thepiratebay.se/user/lletaif&quot; rel=&quot;nofollow&quot; target=&quot;_NEW&quot;&gt;\nhttp://thepiratebay.se/user/lletaif&lt;/a&gt;",
  "parsed": {
    "xt": "urn:btih:55c31d54bd86e96d58549d4562b0613432d95833",
    "dn": "Gemma.Bovery.2014.BRRip.XviD.AC3-EVO",
    "tr": [
      "udp://exodus.desync.com:6969",
      "udp://open.demonii.com:1337",
      "udp://tracker.coppersurfer.tk:6969",
      "udp://tracker.openbittorrent.com:80"
    ],
    "infoHash": "55c31d54bd86e96d58549d4562b0613432d95833",
    "infoHashBuffer": {
      "type": "Buffer",
      "data": [
        85,
        195,
        29,
        84,
        189,
        134,
        233,
        109,
        88,
        84,
        157,
        69,
        98,
        176,
        97,
        52,
        50,
        217,
        88,
        51
      ]
    },
    "name": "Gemma.Bovery.2014.BRRip.XviD.AC3-EVO",
    "announce": [
      "udp://exodus.desync.com:6969",
      "udp://open.demonii.com:1337",
      "udp://tracker.coppersurfer.tk:6969",
      "udp://tracker.openbittorrent.com:80"
    ],
    "urlList": []
  },
  "previous": 55,
  "peers": 37,
  "last_updated": "2016-12-25T01:29:25.766Z"
}